<svg id="Шар_1" data-name="Шар 1" xmlns="http://www.w3.org/2000/svg" viewBox="0 0 292.43 70"><defs><style>.cls-1,.cls-2{fill:#faab18;}.cls-2{fill-rule:evenodd;}</style></defs><title>Монтажна область 1</title><path class="cls-1" d="M287.16,53v5.92a5.7,5.7,0,0,1-.88,2.93,5,5,0,0,1-2,2,5.39,5.39,0,0,1-2.85.81,5.64,5.64,0,0,1-2.93-.81,5,5,0,0,1-2-2,5.64,5.64,0,0,1-.81-2.93v-29a5.2,5.2,0,0,1,.81-2.85,5,5,0,0,1,2-2,5.7,5.7,0,0,1,2.93-.88,5.46,5.46,0,0,1,2.85.88,5,5,0,0,1,2,2,5.25,5.25,0,0,1,.88,2.85v6.51l5.26-.66V29.92a10.68,10.68,0,0,0-1.53-5.63,11.74,11.74,0,0,0-3.88-4,12.21,12.21,0,0,0-5.63-1.54,11.77,11.77,0,0,0-5.63,1.54,11.28,11.28,0,0,0-3.95,4,10.63,10.63,0,0,0-1.54,5.63v29a10.47,10.47,0,0,0,1.54,5.63A10.71,10.71,0,0,0,281.39,70a10.51,10.51,0,0,0,9.51-5.48,10.52,10.52,0,0,0,1.53-5.63V53ZM256.66,7.18H262V0h-5.34ZM262,69.49h-5.34V13H262ZM251.33,18.81a17.66,17.66,0,0,0-6.8,1.24,9.28,9.28,0,0,0-4,3.22l-.95-3.88H236v50.1h5.33v-39a7.12,7.12,0,0,1,.81-3.29A6,6,0,0,1,244.38,25a6.84,6.84,0,0,1,3.14-.88h3.8ZM212,24.73h6.43V62.62a7.88,7.88,0,0,0,1,3.73A6.51,6.51,0,0,0,222.07,69a7.12,7.12,0,0,0,3.73,1V64.66a2.19,2.19,0,0,1-1.46-.58,3.25,3.25,0,0,1-.58-1.46V24.73h6.51V19.39h-6.51V9.08l-5.34.66v9.65H212Zm-21.5,5.19a5.93,5.93,0,0,1,.8-2.85,5.52,5.52,0,0,1,2-2,5.32,5.32,0,0,1,5.85,0,5.52,5.52,0,0,1,2,2,5.19,5.19,0,0,1,.73,2.85V40H190.48ZM202,53v5.92a5.62,5.62,0,0,1-.73,2.93,5.51,5.51,0,0,1-2,2,5.71,5.71,0,0,1-5.85,0,5.52,5.52,0,0,1-2-2,6.46,6.46,0,0,1-.8-2.93V45.35H207.3V29.92a10.6,10.6,0,0,0-1.46-5.63,11.53,11.53,0,0,0-4-4,11.69,11.69,0,0,0-5.56-1.54,12.22,12.22,0,0,0-5.63,1.54,12.67,12.67,0,0,0-3.95,4,11.37,11.37,0,0,0-1.54,5.63v29a11.18,11.18,0,0,0,1.54,5.63,12.18,12.18,0,0,0,3.95,4A11.31,11.31,0,0,0,196.26,70a10.85,10.85,0,0,0,5.56-1.46,11.14,11.14,0,0,0,4-4,10.45,10.45,0,0,0,1.46-5.63V52.3ZM170.74,10.84h.15V69.49h5.34V.16H168.1L156.62,61.3h-.22L145.06.16h-8V69.49h5.34V11.35h.22l11,58.14h6.07Zm-43.37,18.5A10.92,10.92,0,0,0,126,24a12.29,12.29,0,0,0-3.8-3.73,10.77,10.77,0,0,0-5.27-1.46,10.54,10.54,0,0,0-5.27,1.46,11,11,0,0,0-3.8,3.73,10.94,10.94,0,0,0-1.39,5.34v6.51l5.34-.58V29.34a5.18,5.18,0,0,1,.66-2.63,4.55,4.55,0,0,1,1.9-1.83,5,5,0,0,1,2.56-.73,5.47,5.47,0,0,1,2.63.73,4.25,4.25,0,0,1,1.76,1.83,4.63,4.63,0,0,1,.73,2.63v5a6.12,6.12,0,0,1-.73,2.85,7.4,7.4,0,0,1-1.46,2.12L118.3,40.6a3.31,3.31,0,0,1-.66.37l-8,4.61s-.22.15-.66.51a5.2,5.2,0,0,0-1.53,1.39,8.67,8.67,0,0,0-1.61,2.41,9.21,9.21,0,0,0-.66,3.37v5.63a12,12,0,0,0,1.46,5.63A10.95,10.95,0,0,0,116.25,70a9.33,9.33,0,0,0,4.1-.8,8.81,8.81,0,0,0,3.44-2.12,7,7,0,0,0,2.41,1.75,6.7,6.7,0,0,0,3,.66V64.15a1.56,1.56,0,0,1-1.24-.58,1.61,1.61,0,0,1-.58-1.32ZM110.55,53.26A4.46,4.46,0,0,1,111,51.5a3.89,3.89,0,0,1,.95-.95,2.15,2.15,0,0,1,.44-.37l7.9-4.54a2.13,2.13,0,0,0,.59-.36,11.53,11.53,0,0,0,1.17-1V58.88a5.64,5.64,0,0,1-.81,2.93,5.3,5.3,0,0,1-2,2,6.11,6.11,0,0,1-3,.81,5.58,5.58,0,0,1-2.85-.81,5.66,5.66,0,0,1-2.12-2,6.39,6.39,0,0,1-.73-2.93ZM83.85,64.15V.16H78.44V69.49H100.6V64.15Z"/><path class="cls-2" d="M34.93,0A34.93,34.93,0,1,0,69.85,34.93,34.93,34.93,0,0,0,34.93,0ZM50,60.88V19.11H44.43v44.3a29.87,29.87,0,0,1-6.51,1.4V40.51H32.34V64.83a29.88,29.88,0,0,1-7.45-1.61V19.11H19.31V60.57A30,30,0,1,1,50,60.88Z"/></svg>